<?xml version="1.0" standalone="no"?>
<!DOCTYPE svg PUBLIC "-//W3C//DTD SVG 20010904//EN"
 "http://www.w3.org/TR/2001/REC-SVG-20010904/DTD/svg10.dtd">
<svg version="1.0" xmlns="http://www.w3.org/2000/svg"
 width="24" height="24" viewBox="0 0 204.000000 192.000000"
 preserveAspectRatio="xMidYMid meet">

<g transform="translate(0.000000,192.000000) scale(0.100000,-0.100000)"
fill="#1E90FF" stroke="none">
<path d="M785 1540 c-12 -19 -32 -55 -45 -80 -12 -25 -30 -56 -40 -70 -9 -14
-35 -59 -57 -101 l-41 -77 65 -113 c35 -63 75 -134 88 -159 13 -25 30 -53 37
-64 15 -20 7 -32 167 251 l52 93 199 2 198 3 -95 170 c-53 94 -97 172 -99 174
-2 2 -95 5 -205 5 l-202 1 -22 -35z"/>
<path d="M1154 918 c-31 -56 -76 -137 -99 -178 l-43 -75 -199 -5 -200 -5 42
-75 c23 -41 67 -120 97 -175 l56 -100 203 0 203 0 23 40 c13 22 59 103 103
179 79 139 79 139 63 170 -31 60 -174 311 -183 319 -4 5 -34 -38 -66 -95z"/>
</g>
</svg>
